<svg width="15" height="16" viewBox="0 0 15 16" fill="none" xmlns="http://www.w3.org/2000/svg">
<path d="M10.7204 10.3854H10.0429L9.80274 10.1538C10.6723 9.14526 11.1502 7.85767 11.1492 6.52603C11.1492 5.42348 10.8223 4.34568 10.2097 3.42894C9.59719 2.5122 8.72655 1.79769 7.70793 1.37576C6.6893 0.953831 5.56843 0.843435 4.48706 1.05853C3.40569 1.27363 2.41239 1.80456 1.63277 2.58418C0.853145 3.36381 0.322215 4.35711 0.107117 5.43848C-0.107981 6.51985 0.00241539 7.64072 0.424345 8.65934C0.846274 9.67797 1.56079 10.5486 2.47753 11.1612C3.39427 11.7737 4.47206 12.1006 5.57462 12.1006C6.9554 12.1006 8.2247 11.5946 9.2024 10.7542L9.43396 10.9943V11.6718L13.7221 15.9514L15 14.6735L10.7204 10.3854ZM5.57462 10.3854C3.43911 10.3854 1.71527 8.66154 1.71527 6.52603C1.71527 4.39053 3.43911 2.66668 5.57462 2.66668C7.71012 2.66668 9.43396 4.39053 9.43396 6.52603C9.43396 8.66154 7.71012 10.3854 5.57462 10.3854Z" fill="#BFBFBD"/>
</svg>
