<svg width="16" height="16" viewBox="0 0 16 16" fill="none" xmlns="http://www.w3.org/2000/svg">
<path d="M12.7822 6.92469C11.5022 9.44024 9.44 11.4936 6.92444 12.7825L4.96889 10.8269C4.72889 10.5869 4.37333 10.5069 4.06222 10.6136C3.06667 10.9425 1.99111 11.1202 0.888888 11.1202C0.4 11.1202 0 11.5202 0 12.0091V15.1114C0 15.6002 0.4 16.0002 0.888888 16.0002C9.23556 16.0002 16 9.2358 16 0.889133C16 0.400244 15.6 0.000244141 15.1111 0.000244141H12C11.5111 0.000244141 11.1111 0.400244 11.1111 0.889133C11.1111 2.00024 10.9333 3.06691 10.6044 4.06247C10.5067 4.37358 10.5778 4.72024 10.8267 4.96913L12.7822 6.92469Z" fill="white"/>
</svg>
