<svg width="23" height="14" viewBox="0 0 23 14" fill="none" xmlns="http://www.w3.org/2000/svg">
<path d="M22.0473 11.4813C21.3625 10.661 20.5566 9.96088 19.7941 9.21743C19.1062 8.54731 19.0628 8.15856 19.6158 7.38512C20.2193 6.54097 20.8683 5.7292 21.4773 4.88886C22.0458 4.10351 22.6269 3.32031 22.9261 2.37998C23.1158 1.78175 22.948 1.51751 22.3338 1.41276C22.2279 1.39443 22.1185 1.39348 22.0108 1.39348L18.3665 1.3892C17.9177 1.38253 17.6696 1.57797 17.5108 1.97529C17.2966 2.51234 17.0756 3.04892 16.8203 3.56717C16.2411 4.74222 15.5942 5.87798 14.6873 6.83973C14.4873 7.05184 14.2661 7.31989 13.9319 7.20943C13.5138 7.05708 13.3906 6.36909 13.3975 6.13651L13.394 1.93553C13.3129 1.33539 13.1797 1.06782 12.5831 0.951172L8.79748 0.951886C8.29217 0.951886 8.03879 1.14685 7.76897 1.46252C7.61333 1.64487 7.56637 1.76318 7.88624 1.82365C8.51455 1.94268 8.86851 2.3488 8.96242 2.97798C9.11307 3.98329 9.10258 4.99265 9.01582 6.00201C8.99031 6.29672 8.93954 6.59072 8.82251 6.86592C8.63945 7.29846 8.34389 7.38654 7.95561 7.1204C7.60403 6.87949 7.35709 6.53954 7.1154 6.19817C6.2075 4.91695 5.48313 3.53527 4.89249 2.08337C4.72182 1.66391 4.42745 1.40967 3.98244 1.40276C2.8891 1.38539 1.79552 1.38253 0.702176 1.40372C0.0443113 1.4161 -0.151856 1.73509 0.116057 2.33071C1.30689 4.97623 2.63239 7.54818 4.36262 9.89113C5.25097 11.0936 6.2709 12.155 7.58854 12.9073C9.08184 13.76 10.6893 14.0166 12.3824 13.9376C13.1751 13.9005 13.4133 13.6946 13.45 12.9054C13.4748 12.3655 13.536 11.8287 13.8027 11.3435C14.0644 10.8674 14.4608 10.7767 14.9178 11.0728C15.1463 11.2212 15.3389 11.4099 15.5208 11.6089C15.967 12.0965 16.3972 12.5988 16.8604 13.0699C17.4412 13.6603 18.1294 14.009 18.9946 13.9379L22.344 13.9386C22.8836 13.9033 23.1635 13.2425 22.8536 12.6409C22.636 12.2196 22.3504 11.8444 22.0473 11.4813Z" fill="white"/>
</svg>
